Commando 2013 DVDRip ESubs Xvid-Team IcTv


IMDB: http://www.imdb.com/title/tt2658126/


Format : AVI
Format/Info : Audio Video Interleave
File size : 704 MiB
Duration : 2h 4mn
Overall bit rate : 790 Kbps

Video
ID : 0
Format : MPEG-4 Visual
Codec ID : XVID
Duration : 2h 4mn
Bit rate : 700 Kbps
Width : 640 pixels
Height : 272 pixels
Display aspect ratio : 2.35:1
Frame rate : 23.976 fps
Color space : YUV
Chroma subsampling : 4:2:0
Bit depth : 8 bits
Scan type : Progressive
Compression mode : Lossy
Bits/(Pixel*Frame) : 0.168
Stream size : 624 MiB (89%)


Audio
ID : 1
Format : MPEG Audio
Format version : Version 1
Format profile : Layer 3
Mode : Joint stereo
Mode extension : MS Stereo
Codec ID : 55
Codec ID/Hint : MP3
Duration : 2h 4mn
Bit rate mode : Constant
Bit rate : 80.0 Kbps
Channel(s) : 2 channels
Sampling rate : 32.0 KHz
Compression mode : Lossy
Stream size : 71.3 MiB (10%)


Ripper: Master Mind

RESPECTS TO

*SaM* n IcTv

All Credit Goes To Intellect Clever & Team IcTv


Poster:

 
http://i.imgur.com/g3Utfky.jpg


Screenshots:

 
http://i.imgur.com/zHTHtav.png

 
http://i.imgur.com/NXiBeA7.png

 
http://i.imgur.com/ao42baw.jpg


SEED AND ENJOY!